<?xml version="1.0" encoding="utf-8"?>
<!-- Generator: Adobe Illustrator 16.0.0, SVG Export Plug-In . SVG Version: 6.00 Build 0)  -->
<!DOCTYPE svg PUBLIC "-//W3C//DTD SVG 1.1//EN" "http://www.w3.org/Graphics/SVG/1.1/DTD/svg11.dtd">
<svg version="1.1" id="Layer_1" xmlns="http://www.w3.org/2000/svg" xmlns:xlink="http://www.w3.org/1999/xlink" x="0px" y="0px"
	 width="612px" height="792px" viewBox="0 0 612 792" enable-background="new 0 0 612 792" xml:space="preserve">
<path fill="#FFFFFF" d="M612,149.288c-22.95,9.562-45.9,17.212-72.675,19.125c26.774-15.3,45.899-40.163,55.462-68.85
	c-24.862,15.3-51.637,24.862-80.324,30.6C493.425,105.3,459,90,424.575,90c-68.851,0-126.225,55.462-126.225,126.225
	c0,9.562,1.913,19.125,3.825,28.688c-105.188-5.738-196.987-55.462-260.1-131.962c-11.475,19.125-17.213,40.162-17.213,63.112
	c0,43.987,22.95,82.237,55.463,105.188c-21.038,0-40.163-5.737-57.375-15.3v1.912c0,61.2,43.987,110.925,101.362,122.4
	c-11.475,1.912-21.038,3.825-32.513,3.825c-7.65,0-15.3,0-22.95-1.913c15.3,49.726,63.112,86.062,116.663,87.976
	c-42.075,34.425-97.538,53.55-156.825,53.55c-9.562,0-21.038,0-30.6-1.913c55.462,36.338,122.4,57.375,193.163,57.375
	c231.412,0,357.638-191.25,357.638-357.637c0-5.737,0-11.475,0-15.3C573.75,197.1,594.787,174.15,612,149.288z"/>
</svg>
