<?xml version="1.0" encoding="utf-8"?>
<!-- Generator: Adobe Illustrator 16.0.0, SVG Export Plug-In . SVG Version: 6.00 Build 0)  -->
<!DOCTYPE svg PUBLIC "-//W3C//DTD SVG 1.1//EN" "http://www.w3.org/Graphics/SVG/1.1/DTD/svg11.dtd">
<svg version="1.1" id="Layer_1" xmlns="http://www.w3.org/2000/svg" xmlns:xlink="http://www.w3.org/1999/xlink" x="0px" y="0px"
	 width="612px" height="792px" viewBox="0 0 612 792" enable-background="new 0 0 612 792" xml:space="preserve">
<path fill="#FFFFFF" d="M338.513,581.513c0-5.737,0-9.562-1.913-15.3c-1.912-3.825-1.912-9.562-3.824-13.388
	c-1.913-3.825-3.825-7.65-5.738-13.388c-3.824-3.825-5.737-7.65-7.649-11.475c-1.913-3.825-5.737-5.738-9.562-11.476
	c-3.825-3.825-7.65-7.649-9.562-9.562c-1.913-1.912-5.738-5.737-11.475-9.562c-5.738-3.825-9.562-7.649-11.475-7.649
	s-5.737-3.825-11.475-7.65c-5.737-3.825-9.562-7.65-11.475-7.65c-3.825,0-9.562,0-19.125,0c-13.387,0-26.775,0-38.25,1.913
	c-13.387,1.912-26.775,3.825-40.162,9.562c-13.388,3.825-24.863,9.562-36.338,17.212c-11.475,7.65-19.125,15.301-24.862,26.775
	s-9.562,24.862-9.562,40.162c0,17.213,3.825,32.513,13.388,43.988c9.562,13.387,21.037,22.949,34.425,30.6
	s28.688,13.388,43.987,17.213c15.3,3.824,30.6,5.737,45.9,5.737c15.3,0,28.688-1.913,42.075-3.825
	c13.388-3.825,24.863-7.65,36.337-15.3c11.476-5.737,21.038-15.3,26.775-26.775C334.688,610.2,338.513,596.812,338.513,581.513z
	 M294.525,264.038c0-15.3-1.913-30.6-5.737-47.812c-3.825-17.212-9.562-32.513-17.212-47.812c-7.65-15.3-17.213-28.688-30.6-38.25
	c-13.388-9.562-28.688-15.3-43.988-15.3c-22.95,0-40.162,7.65-53.55,24.863s-19.125,36.337-19.125,61.2
	c0,11.475,1.913,22.95,3.825,36.338c1.912,13.387,7.65,24.862,13.387,38.25c5.738,13.387,13.388,24.862,21.038,34.425
	s17.212,19.125,28.688,24.862c11.475,5.738,22.95,9.562,36.337,9.562c22.95,0,40.163-7.65,51.638-22.95
	C288.788,308.025,294.525,288.9,294.525,264.038z M246.712,90h160.65l-49.725,28.688h-49.726
	c17.213,11.475,30.601,26.775,40.163,45.9s15.3,40.163,15.3,61.2c0,17.212-1.912,34.425-7.65,47.812
	c-5.737,13.387-13.387,24.862-21.037,34.425c-7.65,7.65-15.3,17.212-24.862,22.95c-7.65,7.65-15.3,15.3-21.038,22.95
	c-5.738,7.65-7.65,15.3-7.65,24.863c0,5.737,1.912,13.387,5.737,19.125c3.825,5.738,9.562,11.476,15.3,17.213
	s13.388,11.475,21.038,17.213c7.649,5.737,15.3,13.387,22.949,21.037c7.65,7.65,15.301,15.3,21.038,24.862
	s11.475,19.125,15.3,30.601c3.825,11.475,5.737,24.862,5.737,38.25c0,40.162-17.212,74.587-51.638,103.274
	c-36.337,32.513-87.975,47.812-154.912,47.812c-15.3,0-28.688-1.912-43.987-3.825c-15.3-1.912-30.6-5.737-43.988-11.475
	c-15.3-5.737-28.688-13.388-40.163-21.037c-11.475-7.65-21.037-19.125-28.688-32.513C19.125,617.85,15.3,604.463,15.3,587.25
	c0-15.3,3.825-30.6,13.388-49.725c7.65-15.301,19.125-28.688,34.425-40.163c15.3-11.475,34.425-21.037,53.55-26.774
	c19.125-5.738,38.25-9.562,57.375-13.388c17.212-1.913,36.337-3.825,55.462-5.737c-15.3-21.038-22.95-38.25-22.95-55.463
	c0-3.825,0-5.737,0-9.562c0-1.913,1.913-5.737,1.913-7.65s1.913-3.825,3.825-7.65c1.913-3.825,1.913-5.738,1.913-7.65
	c-9.562,1.913-19.125,1.913-24.863,1.913c-36.337,0-66.938-11.475-93.712-36.337s-38.25-53.55-38.25-89.888
	c0-34.425,11.475-65.025,34.425-91.8c22.95-24.862,51.638-42.075,86.062-49.725C200.812,91.913,223.763,90,246.712,90z
	 M627.3,183.712v47.812h-93.712v93.712h-47.812v-93.712h-93.713v-47.812h93.713V90h47.812v93.712H627.3z"/>
</svg>
